<?xml version="1.0"?>
<svg xmlns="http://www.w3.org/2000/svg" xmlns:xlink="http://www.w3.org/1999/xlink" xmlns:svgjs="http://svgjs.com/svgjs" version="1.1" width="512" height="512" x="0" y="0" viewBox="0 0 512 512" style="enable-background:new 0 0 512 512" xml:space="preserve" class=""><g><g xmlns="http://www.w3.org/2000/svg"><g><path clip-rule="evenodd" d="m352.771 215.638c-61.292-8.73-64.107-35.206-96.771-35.093-32.693-.114-35.507 26.362-96.771 35.093 1.393 23.177 12.196 43.141 27.889 57.985 18.592 17.518 44.008 27.869 68.883 27.869 24.847 0 50.29-10.351 68.854-27.869 15.72-14.844 26.523-34.808 27.916-57.985z" fill="#21dbd2" fill-rule="evenodd" data-original="#ccf49e" style="" class=""/></g><g><path clip-rule="evenodd" d="m352.913 171.901c-61.406-8.73-64.22-35.235-96.913-35.121-32.721-.114-35.507 26.391-96.942 35.121v38.619c0 1.706.057 3.413.171 5.119 61.264-8.73 64.078-35.206 96.771-35.093 32.665-.114 35.479 26.362 96.771 35.093.085-1.706.142-3.413.142-5.119z" fill="#eceaed" fill-rule="evenodd" data-original="#eceaed" style="" class=""/></g><g><path clip-rule="evenodd" d="m324.854 273.624c15.721-14.845 26.524-34.808 27.917-57.985-14.754-2.104-26.126-5.233-35.337-8.787-2.786 20.561-13.02 38.306-27.32 51.814-18.564 17.518-44.008 27.869-68.854 27.869-6.965 0-13.987-.825-20.895-2.389 16.545 11.062 36.275 17.347 55.635 17.347 24.847 0 50.29-10.352 68.854-27.869z" fill="#00ad95" fill-rule="evenodd" data-original="#b3e59e" style="" class=""/></g><g><path clip-rule="evenodd" d="m317.434 206.851c9.211 3.555 20.582 6.683 35.337 8.787-14.754-2.104-26.126-5.232-35.337-8.787zm35.479 3.669v-38.619c-14.413-2.048-25.614-5.09-34.74-8.531v32.192c0 1.706-.028 3.413-.142 5.119-.114 2.076-.341 4.152-.597 6.171 9.211 3.555 20.582 6.683 35.337 8.787.086-1.707.142-3.413.142-5.119z" fill="#dad8db" fill-rule="evenodd" data-original="#dad8db" style="" class=""/></g><g><path clip-rule="evenodd" d="m310.782 438.792 77.326-10.721 40.34-33.073c2.985-1.138 5.998-2.218 8.983-3.327 9.694-3.441 14.811-14.191 11.371-23.888-3.411-9.697-14.157-14.816-24.278-11.233l-44.86 16.75-81.278 30.315c-2.7 15.697.456 35.205 12.396 35.177z" fill="#f1d0a5" fill-rule="evenodd" data-original="#f1d0a5" style="" class=""/></g><g><path clip-rule="evenodd" d="m243.349 384.617 38.094-4.635 12.224-14.134c8.699-3.413 13.248-13.224 10.092-22.125-3.212-9.072-13.248-13.849-22.715-10.494l-89.948 33.358 8.841 17.233z" fill="#f1d0a5" fill-rule="evenodd" data-original="#f1d0a5" style="" class=""/></g><g><path clip-rule="evenodd" d="m298.387 403.614 53.048-11.318 28.23-18.997c7.249-4.55 10.661-13.736 7.704-22.096-3.44-9.697-14.186-14.845-24.307-11.233l-69.394 25.879c-.199.085-.37.142-.569.199l-49.75 18.57 15.039 21.385z" fill="#f1d0a5" fill-rule="evenodd" data-original="#f1d0a5" style="" class=""/></g><g><path clip-rule="evenodd" d="m243.349 384.617 49.75-18.57.569-.199c8.699-3.413 13.248-13.224 10.092-22.125-1.45-4.067-4.264-7.28-7.789-9.271.597 7.508-3.781 14.845-11.059 17.688l-.54.199-61.832 25.111z" fill="#e5c093" fill-rule="evenodd" data-original="#e5c093" style="" class=""/></g><g><path clip-rule="evenodd" d="m298.387 403.614 81.278-30.315c7.249-4.55 10.661-13.736 7.704-22.096-2.701-7.593-9.865-12.399-17.683-12.399.682 1.109 1.251 2.332 1.706 3.612 2.957 8.361.967 11.916-6.283 16.466l-94.241 35.235z" fill="#e5c093" fill-rule="evenodd" data-original="#e5c093" style="" class=""/></g><g><path clip-rule="evenodd" d="m310.782 438.792c39.402-14.646 78.833-29.689 118.32-44.022l8.33-3.1c9.694-3.441 14.811-14.191 11.371-23.888-1.99-5.659-6.482-9.754-11.883-11.489 2.729 9.413-2.729 17.233-12.054 20.532-37.242 13.878-74.54 28.466-111.782 42.344.142.512.256 1.024.37 1.536.938 4.237.824 8.531-.313 12.513-.539 1.934-1.336 3.811-2.359 5.574z" fill="#e5c093" fill-rule="evenodd" data-original="#e5c093" style="" class=""/></g><g><path clip-rule="evenodd" d="m173.841 486.852 47.021 14.048c16.659 5.005 44.974 4.749 61.264-.284 24.164-7.479 62.714-22.21 76.928-28.011l93.729-38.164c11.798-4.806 14.243-21.044 7.534-31.907-6.567-10.636-19.474-12.001-31.215-7.764l-.654.228-117.666 43.795c7.221-12.399 2.246-30.713-12.395-35.178l-107.29-37.026c-26.467-9.129-34.626-21.556-88.498-1.422l-32.38 57.672 32.38 52.44c28.4.454 41.534 2.7 71.242 11.573z" fill="#ffe4c1" fill-rule="evenodd" data-original="#ffe4c1" style="" class=""/></g><g><path clip-rule="evenodd" d="m102.599 475.278c28.4.455 41.534 2.702 71.242 11.574l47.021 14.048c16.659 5.005 44.974 4.749 61.264-.284 24.164-7.479 62.714-22.21 76.928-28.011l93.729-38.164c11.798-4.806 14.243-21.044 7.534-31.907-.085-.142-.171-.284-.256-.427-1.819 2.474-4.236 4.465-7.278 5.716l-93.729 38.164c-14.214 5.801-52.764 20.532-76.928 28.011-16.29 5.034-44.605 5.289-61.264.313l-47.021-14.077c-29.708-8.873-42.842-11.091-71.242-11.546v2.73 18.001z" fill="#f1d0a5" fill-rule="evenodd" data-original="#f1d0a5" style="" class=""/></g><g><path clip-rule="evenodd" d="m102.599 469.42v-102.69-8.617c0-7.195-5.885-13.082-13.077-13.082h-41.023c-7.192 0-13.077 5.887-13.077 13.082v119.923c0 7.195 5.913 13.082 13.077 13.082h41.023c7.192 0 13.077-5.887 13.077-13.082z" fill="#eceaed" fill-rule="evenodd" data-original="#eceaed" style="" class=""/></g><g><path clip-rule="evenodd" d="m48.499 491.118h41.023c7.192 0 13.077-5.887 13.077-13.082v-2.758-5.858-18.001-2.73c0 7.166-5.885 13.082-13.077 13.082h-41.023c-7.164 0-13.049-5.887-13.077-13.053v29.32c0 7.193 5.913 13.08 13.077 13.08z" fill="#dad8db" fill-rule="evenodd" data-original="#dad8db" style="" class=""/></g><g><path d="m139.195 127.903c-13.592 0-27.352 11.547-27.352 33.617 0 57.002 39.02 90.701 70.372 117.779.032.028.066.051.099.078.815.762 1.639 1.517 2.484 2.259 19.796 17.385 45.747 27.356 71.202 27.356 25.452 0 51.4-9.971 71.189-27.357.868-.763 1.715-1.54 2.551-2.324.004-.004.009-.007.013-.01 31.354-27.055 70.375-60.726 70.375-117.781 0-22.07-13.759-33.617-27.352-33.617-13.598 0-27.364 11.547-27.364 33.617v1.556c-26.131-4.864-39.319-13.124-51.085-20.494-10.922-6.841-21.241-13.304-38.072-13.304-.154 0-.307 0-.461 0-16.893 0-27.216 6.464-38.14 13.306-11.765 7.369-24.953 15.628-51.096 20.492v-1.556c.001-22.069-13.764-33.617-27.363-33.617zm-12.351 33.618c0-12.791 6.403-18.617 12.351-18.617 5.954 0 12.363 5.826 12.363 18.617v10.38 38.619c0 7.057.812 13.991 2.381 20.722-15.592-18.654-27.095-40.827-27.095-69.721zm233.569 48.998v-38.619-10.38c0-12.791 6.409-18.617 12.363-18.617 5.949 0 12.351 5.826 12.351 18.617 0 28.928-11.506 51.108-27.103 69.757 1.575-6.742 2.389-13.688 2.389-20.758zm-104.413 83.473c-39.814 0-82.221-28.498-88.615-72.06 30.224-5.336 45.661-14.994 58.233-22.868 10.205-6.392 17.591-11.018 30.227-11.018h.359c12.571 0 19.957 4.626 30.161 11.016 12.572 7.875 28.008 17.533 58.221 22.87-6.39 43.563-48.785 72.06-88.586 72.06zm-30.381-138.694c10.205-6.392 17.591-11.018 30.227-11.018h.359c12.571 0 19.957 4.626 30.161 11.016 12.688 7.947 28.28 17.714 59.047 23.019v28.528c-26.131-4.864-39.319-13.124-51.085-20.493-10.922-6.841-21.241-13.304-38.072-13.304-.153 0-.306 0-.461 0-16.893 0-27.216 6.464-38.14 13.305-11.765 7.369-24.953 15.629-51.096 20.493v-28.528c30.779-5.305 46.371-15.072 59.06-23.018z" fill="#000000" data-original="#000000" style="" class=""/><path d="m453.686 387.433c3.84-6.466 4.894-14.524 2.193-22.141-1.4-3.978-3.701-7.477-6.698-10.287 24.131-37.192 36.831-80.118 36.831-124.921 0-61.461-23.924-119.241-67.366-162.697s-101.203-67.387-162.646-67.387c-57.445 0-112.457 21.298-154.899 59.97-3.062 2.79-3.282 7.534-.492 10.596 2.789 3.062 7.533 3.281 10.596.493 39.673-36.15 91.096-56.058 144.795-56.058 118.558 0 215.011 96.486 215.011 215.084 0 42.462-12.201 83.115-35.363 118.204-4.494-.778-9.161-.392-13.626 1.19-.04.014-.079.028-.119.043l-26.086 9.733c.263-3.513-.162-7.105-1.379-10.56-2.327-6.562-7.082-11.827-13.388-14.823-6.421-3.052-13.708-3.394-20.508-.966-.034.012-.067.024-.101.036l-48.213 17.981c.183-3.256-.278-6.544-1.397-9.703-2.237-6.318-6.824-11.362-12.913-14.201-6.071-2.831-12.954-3.136-19.379-.858-.034.012-.068.024-.102.037l-87.38 32.405c-3.411-1.255-6.562-2.561-9.615-3.835-17.733-7.396-32.028-13.338-71.656-.101-1.647-9.71-10.095-17.136-20.265-17.136h-19.834c-18.797-32.589-28.698-69.561-28.698-107.446 0-49.001 16.033-95.143 46.367-133.438 2.572-3.247 2.025-7.964-1.222-10.536-3.248-2.572-7.964-2.026-10.537 1.222-32.455 40.972-49.609 90.335-49.609 142.752 0 37.647 9.146 74.453 26.569 107.446h-4.058c-11.347 0-20.578 9.233-20.578 20.582v39.614c0 4.142 3.358 7.5 7.5 7.5s7.5-3.358 7.5-7.5v-39.614c0-3.077 2.502-5.581 5.577-5.581h41.023c3.075 0 5.576 2.504 5.576 5.581v119.924c0 3.077-2.501 5.581-5.576 5.581h-41.022c-3.024 0-5.577-2.556-5.577-5.581v-43.055c0-4.142-3.358-7.5-7.5-7.5s-7.5 3.358-7.5 7.5v43.055c0 11.349 9.231 20.582 20.578 20.582h41.023c9.655 0 17.756-6.695 19.963-15.681 22.711.692 35.311 3.068 62.21 11.102l47.009 14.045c8.706 2.616 20.357 3.917 32.076 3.917 12.204 0 24.478-1.411 33.564-4.219 24.183-7.485 63.053-22.318 77.538-28.23l93.731-38.164c6.83-2.783 11.932-8.421 14.363-15.874 2.846-8.724 1.59-19.039-3.276-26.916-3.185-5.168-7.681-8.927-13.015-11.166zm-71.464-7.094c.025-.009.051-.019.076-.028l44.783-16.71c3.031-1.059 6.233-.909 9.021.425 2.658 1.272 4.656 3.489 5.633 6.263 2.066 5.825-.989 12.246-6.812 14.312-.035.013-.071.025-.106.039l-7.735 2.878c-.431.15-.863.303-1.295.467-.077.029-.147.066-.223.098l-104.01 38.699c.032-2.583-.218-5.202-.799-7.808-1.132-5.076-3.36-9.593-6.421-13.303zm-16.594-33.321c3.013-1.062 6.2-.919 8.984.403 2.682 1.275 4.702 3.508 5.684 6.274 1.657 4.703-.079 10.015-4.124 12.889l-77.884 29.061-32.744-11.301zm-82.032-6.735c2.681-.939 5.513-.82 7.983.331 2.412 1.125 4.228 3.118 5.111 5.613.886 2.502.734 5.216-.427 7.643-1.156 2.416-3.162 4.228-5.649 5.101-.128.045-.248.101-.372.152l-46.996 17.527-29.893-10.317zm172.12 80.578c-.736 2.255-2.333 5.237-5.761 6.634l-93.735 38.165c-14.287 5.831-52.565 20.441-76.308 27.79-15.176 4.688-41.76 4.813-56.902.264l-47.022-14.049c-28.059-8.38-41.928-10.971-65.889-11.716v-97.53c37.719-13.404 48.944-8.741 65.569-1.807 3.999 1.668 120.273 42.092 120.273 42.092.083.029.167.056.252.082 7.138 2.184 9.316 8.734 9.921 11.449 1.384 6.21-.402 12.461-4.66 16.314-5.966 5.399-16.447 5.996-29.511 1.68l-66.096-21.84c-3.936-1.3-8.176.836-9.475 4.768-1.3 3.933.835 8.175 4.768 9.475l66.096 21.84c7.831 2.588 14.541 3.595 20.243 3.595 12.386 0 20.017-4.755 24.04-8.395 1.575-1.425 2.975-3.008 4.197-4.714l116.171-43.223c7.745-2.72 17.368-2.852 22.05 4.739 2.572 4.167 3.27 9.814 1.779 14.387z" fill="#000000" data-original="#000000" style="" class=""/></g></g></g></svg>
